# xmcd
#
# Track frame offsets:
#	150
#	20360
#	35358
#	37353
#	54740
#	59428
#	71859
#	87677
#	103728
#	110597
#	132872
#	158236
#	186536
#
# Disc length: 2754 seconds
# Revision: 0
# Processed by: cddbd v1.5.2PL0 Copyright (c) Steve Scherf et al.
# Submitted via: dBpowerAMP V12.0
#
DISCID=c80ac00d
DTITLE=Ian Siegal - Man and Guitar
DYEAR=2014
DGENRE=Blues
TTITLE0=The Silver Spurs
TTITLE1=Mary Don't You Weep
TTITLE2=Interlude: Big George
TTITLE3=Mortal Coil Shuffle
TTITLE4=Interlude: Charlie
TTITLE5=Pony Blues
TTITLE6=I Am The Train
TTITLE7=Taint Nobody's Business
TTITLE8=Interlude: Young Mickey
TTITLE9=Falling On Down Again
TTITLE10=Preachin' Blues/Live So God Can Use You/You Got To Move (medley)
TTITLE11=Gallo Del Cielo
TTITLE12=Hard Times (Come Again No More)
EXTD=
EXTT0=
EXTT1=
EXTT2=
EXTT3=
EXTT4=
EXTT5=
EXTT6=
EXTT7=
EXTT8=
EXTT9=
EXTT10=
EXTT11=
EXTT12=
PLAYORDER=
